solid enclosure
  facet normal 0.000000 0.000000 -1.000000
    outer loop
      vertex 0.0000 0.0000 0.0000
      vertex 90.0000 60.0000 0.0000
      vertex 90.0000 0.0000 0.0000
    endloop
  endfacet
  facet normal 0.000000 0.000000 -1.000000
    outer loop
      vertex 0.0000 0.0000 0.0000
      vertex 0.0000 60.0000 0.0000
      vertex 90.0000 60.0000 0.0000
    endloop
  endfacet
  facet normal 0.000000 0.000000 1.000000
    outer loop
      vertex 0.0000 0.0000 2.0000
      vertex 90.0000 0.0000 2.0000
      vertex 90.0000 60.0000 2.0000
    endloop
  endfacet
  facet normal 0.000000 0.000000 1.000000
    outer loop
      vertex 0.0000 0.0000 2.0000
      vertex 90.0000 60.0000 2.0000
      vertex 0.0000 60.0000 2.0000
    endloop
  endfacet
  facet normal 0.000000 -1.000000 0.000000
    outer loop
      vertex 0.0000 0.0000 0.0000
      vertex 90.0000 0.0000 0.0000
      vertex 90.0000 0.0000 2.0000
    endloop
  endfacet
  facet normal 0.000000 -1.000000 0.000000
    outer loop
      vertex 0.0000 0.0000 0.0000
      vertex 90.0000 0.0000 2.0000
      vertex 0.0000 0.0000 2.0000
    endloop
  endfacet
  facet normal 1.000000 0.000000 0.000000
    outer loop
      vertex 90.0000 0.0000 0.0000
      vertex 90.0000 60.0000 0.0000
      vertex 90.0000 60.0000 2.0000
    endloop
  endfacet
  facet normal 1.000000 0.000000 0.000000
    outer loop
      vertex 90.0000 0.0000 0.0000
      vertex 90.0000 60.0000 2.0000
      vertex 90.0000 0.0000 2.0000
    endloop
  endfacet
  facet normal 0.000000 1.000000 0.000000
    outer loop
      vertex 90.0000 60.0000 0.0000
      vertex 0.0000 60.0000 0.0000
      vertex 0.0000 60.0000 2.0000
    endloop
  endfacet
  facet normal 0.000000 1.000000 0.000000
    outer loop
      vertex 90.0000 60.0000 0.0000
      vertex 0.0000 60.0000 2.0000
      vertex 90.0000 60.0000 2.0000
    endloop
  endfacet
  facet normal -1.000000 0.000000 0.000000
    outer loop
      vertex 0.0000 60.0000 0.0000
      vertex 0.0000 0.0000 0.0000
      vertex 0.0000 0.0000 2.0000
    endloop
  endfacet
  facet normal -1.000000 0.000000 0.000000
    outer loop
      vertex 0.0000 60.0000 0.0000
      vertex 0.0000 0.0000 2.0000
      vertex 0.0000 60.0000 2.0000
    endloop
  endfacet
  facet normal 0.000000 0.000000 -1.000000
    outer loop
      vertex 0.0000 0.0000 0.0000
      vertex 2.0000 60.0000 0.0000
      vertex 2.0000 0.0000 0.0000
    endloop
  endfacet
  facet normal 0.000000 0.000000 -1.000000
    outer loop
      vertex 0.0000 0.0000 0.0000
      vertex 0.0000 60.0000 0.0000
      vertex 2.0000 60.0000 0.0000
    endloop
  endfacet
  facet normal 0.000000 0.000000 1.000000
    outer loop
      vertex 0.0000 0.0000 35.0000
      vertex 2.0000 0.0000 35.0000
      vertex 2.0000 60.0000 35.0000
    endloop
  endfacet
  facet normal 0.000000 0.000000 1.000000
    outer loop
      vertex 0.0000 0.0000 35.0000
      vertex 2.0000 60.0000 35.0000
      vertex 0.0000 60.0000 35.0000
    endloop
  endfacet
  facet normal 0.000000 -1.000000 0.000000
    outer loop
      vertex 0.0000 0.0000 0.0000
      vertex 2.0000 0.0000 0.0000
      vertex 2.0000 0.0000 35.0000
    endloop
  endfacet
  facet normal 0.000000 -1.000000 0.000000
    outer loop
      vertex 0.0000 0.0000 0.0000
      vertex 2.0000 0.0000 35.0000
      vertex 0.0000 0.0000 35.0000
    endloop
  endfacet
  facet normal 1.000000 0.000000 0.000000
    outer loop
      vertex 2.0000 0.0000 0.0000
      vertex 2.0000 60.0000 0.0000
      vertex 2.0000 60.0000 35.0000
    endloop
  endfacet
  facet normal 1.000000 0.000000 0.000000
    outer loop
      vertex 2.0000 0.0000 0.0000
      vertex 2.0000 60.0000 35.0000
      vertex 2.0000 0.0000 35.0000
    endloop
  endfacet
  facet normal 0.000000 1.000000 0.000000
    outer loop
      vertex 2.0000 60.0000 0.0000
      vertex 0.0000 60.0000 0.0000
      vertex 0.0000 60.0000 35.0000
    endloop
  endfacet
  facet normal 0.000000 1.000000 -0.000000
    outer loop
      vertex 2.0000 60.0000 0.0000
      vertex 0.0000 60.0000 35.0000
      vertex 2.0000 60.0000 35.0000
    endloop
  endfacet
  facet normal -1.000000 0.000000 0.000000
    outer loop
      vertex 0.0000 60.0000 0.0000
      vertex 0.0000 0.0000 0.0000
      vertex 0.0000 0.0000 35.0000
    endloop
  endfacet
  facet normal -1.000000 0.000000 0.000000
    outer loop
      vertex 0.0000 60.0000 0.0000
      vertex 0.0000 0.0000 35.0000
      vertex 0.0000 60.0000 35.0000
    endloop
  endfacet
  facet normal 0.000000 0.000000 -1.000000
    outer loop
      vertex 88.0000 0.0000 0.0000
      vertex 90.0000 60.0000 0.0000
      vertex 90.0000 0.0000 0.0000
    endloop
  endfacet
  facet normal 0.000000 0.000000 -1.000000
    outer loop
      vertex 88.0000 0.0000 0.0000
      vertex 88.0000 60.0000 0.0000
      vertex 90.0000 60.0000 0.0000
    endloop
  endfacet
  facet normal 0.000000 0.000000 1.000000
    outer loop
      vertex 88.0000 0.0000 35.0000
      vertex 90.0000 0.0000 35.0000
      vertex 90.0000 60.0000 35.0000
    endloop
  endfacet
  facet normal 0.000000 0.000000 1.000000
    outer loop
      vertex 88.0000 0.0000 35.0000
      vertex 90.0000 60.0000 35.0000
      vertex 88.0000 60.0000 35.0000
    endloop
  endfacet
  facet normal 0.000000 -1.000000 0.000000
    outer loop
      vertex 88.0000 0.0000 0.0000
      vertex 90.0000 0.0000 0.0000
      vertex 90.0000 0.0000 35.0000
    endloop
  endfacet
  facet normal 0.000000 -1.000000 0.000000
    outer loop
      vertex 88.0000 0.0000 0.0000
      vertex 90.0000 0.0000 35.0000
      vertex 88.0000 0.0000 35.0000
    endloop
  endfacet
  facet normal 1.000000 0.000000 0.000000
    outer loop
      vertex 90.0000 0.0000 0.0000
      vertex 90.0000 60.0000 0.0000
      vertex 90.0000 60.0000 35.0000
    endloop
  endfacet
  facet normal 1.000000 0.000000 0.000000
    outer loop
      vertex 90.0000 0.0000 0.0000
      vertex 90.0000 60.0000 35.0000
      vertex 90.0000 0.0000 35.0000
    endloop
  endfacet
  facet normal 0.000000 1.000000 0.000000
    outer loop
      vertex 90.0000 60.0000 0.0000
      vertex 88.0000 60.0000 0.0000
      vertex 88.0000 60.0000 35.0000
    endloop
  endfacet
  facet normal 0.000000 1.000000 -0.000000
    outer loop
      vertex 90.0000 60.0000 0.0000
      vertex 88.0000 60.0000 35.0000
      vertex 90.0000 60.0000 35.0000
    endloop
  endfacet
  facet normal -1.000000 0.000000 0.000000
    outer loop
      vertex 88.0000 60.0000 0.0000
      vertex 88.0000 0.0000 0.0000
      vertex 88.0000 0.0000 35.0000
    endloop
  endfacet
  facet normal -1.000000 0.000000 0.000000
    outer loop
      vertex 88.0000 60.0000 0.0000
      vertex 88.0000 0.0000 35.0000
      vertex 88.0000 60.0000 35.0000
    endloop
  endfacet
  facet normal 0.000000 0.000000 -1.000000
    outer loop
      vertex 0.0000 0.0000 0.0000
      vertex 90.0000 2.0000 0.0000
      vertex 90.0000 0.0000 0.0000
    endloop
  endfacet
  facet normal 0.000000 0.000000 -1.000000
    outer loop
      vertex 0.0000 0.0000 0.0000
      vertex 0.0000 2.0000 0.0000
      vertex 90.0000 2.0000 0.0000
    endloop
  endfacet
  facet normal 0.000000 0.000000 1.000000
    outer loop
      vertex 0.0000 0.0000 35.0000
      vertex 90.0000 0.0000 35.0000
      vertex 90.0000 2.0000 35.0000
    endloop
  endfacet
  facet normal 0.000000 0.000000 1.000000
    outer loop
      vertex 0.0000 0.0000 35.0000
      vertex 90.0000 2.0000 35.0000
      vertex 0.0000 2.0000 35.0000
    endloop
  endfacet
  facet normal 0.000000 -1.000000 0.000000
    outer loop
      vertex 0.0000 0.0000 0.0000
      vertex 90.0000 0.0000 0.0000
      vertex 90.0000 0.0000 35.0000
    endloop
  endfacet
  facet normal 0.000000 -1.000000 0.000000
    outer loop
      vertex 0.0000 0.0000 0.0000
      vertex 90.0000 0.0000 35.0000
      vertex 0.0000 0.0000 35.0000
    endloop
  endfacet
  facet normal 1.000000 0.000000 0.000000
    outer loop
      vertex 90.0000 0.0000 0.0000
      vertex 90.0000 2.0000 0.0000
      vertex 90.0000 2.0000 35.0000
    endloop
  endfacet
  facet normal 1.000000 0.000000 0.000000
    outer loop
      vertex 90.0000 0.0000 0.0000
      vertex 90.0000 2.0000 35.0000
      vertex 90.0000 0.0000 35.0000
    endloop
  endfacet
  facet normal 0.000000 1.000000 0.000000
    outer loop
      vertex 90.0000 2.0000 0.0000
      vertex 0.0000 2.0000 0.0000
      vertex 0.0000 2.0000 35.0000
    endloop
  endfacet
  facet normal 0.000000 1.000000 -0.000000
    outer loop
      vertex 90.0000 2.0000 0.0000
      vertex 0.0000 2.0000 35.0000
      vertex 90.0000 2.0000 35.0000
    endloop
  endfacet
  facet normal -1.000000 0.000000 0.000000
    outer loop
      vertex 0.0000 2.0000 0.0000
      vertex 0.0000 0.0000 0.0000
      vertex 0.0000 0.0000 35.0000
    endloop
  endfacet
  facet normal -1.000000 0.000000 0.000000
    outer loop
      vertex 0.0000 2.0000 0.0000
      vertex 0.0000 0.0000 35.0000
      vertex 0.0000 2.0000 35.0000
    endloop
  endfacet
  facet normal 0.000000 0.000000 -1.000000
    outer loop
      vertex 0.0000 58.0000 0.0000
      vertex 90.0000 60.0000 0.0000
      vertex 90.0000 58.0000 0.0000
    endloop
  endfacet
  facet normal 0.000000 0.000000 -1.000000
    outer loop
      vertex 0.0000 58.0000 0.0000
      vertex 0.0000 60.0000 0.0000
      vertex 90.0000 60.0000 0.0000
    endloop
  endfacet
  facet normal 0.000000 0.000000 1.000000
    outer loop
      vertex 0.0000 58.0000 35.0000
      vertex 90.0000 58.0000 35.0000
      vertex 90.0000 60.0000 35.0000
    endloop
  endfacet
  facet normal 0.000000 0.000000 1.000000
    outer loop
      vertex 0.0000 58.0000 35.0000
      vertex 90.0000 60.0000 35.0000
      vertex 0.0000 60.0000 35.0000
    endloop
  endfacet
  facet normal 0.000000 -1.000000 0.000000
    outer loop
      vertex 0.0000 58.0000 0.0000
      vertex 90.0000 58.0000 0.0000
      vertex 90.0000 58.0000 35.0000
    endloop
  endfacet
  facet normal 0.000000 -1.000000 0.000000
    outer loop
      vertex 0.0000 58.0000 0.0000
      vertex 90.0000 58.0000 35.0000
      vertex 0.0000 58.0000 35.0000
    endloop
  endfacet
  facet normal 1.000000 0.000000 0.000000
    outer loop
      vertex 90.0000 58.0000 0.0000
      vertex 90.0000 60.0000 0.0000
      vertex 90.0000 60.0000 35.0000
    endloop
  endfacet
  facet normal 1.000000 0.000000 0.000000
    outer loop
      vertex 90.0000 58.0000 0.0000
      vertex 90.0000 60.0000 35.0000
      vertex 90.0000 58.0000 35.0000
    endloop
  endfacet
  facet normal 0.000000 1.000000 0.000000
    outer loop
      vertex 90.0000 60.0000 0.0000
      vertex 0.0000 60.0000 0.0000
      vertex 0.0000 60.0000 35.0000
    endloop
  endfacet
  facet normal 0.000000 1.000000 0.000000
    outer loop
      vertex 90.0000 60.0000 0.0000
      vertex 0.0000 60.0000 35.0000
      vertex 90.0000 60.0000 35.0000
    endloop
  endfacet
  facet normal -1.000000 0.000000 0.000000
    outer loop
      vertex 0.0000 60.0000 0.0000
      vertex 0.0000 58.0000 0.0000
      vertex 0.0000 58.0000 35.0000
    endloop
  endfacet
  facet normal -1.000000 0.000000 0.000000
    outer loop
      vertex 0.0000 60.0000 0.0000
      vertex 0.0000 58.0000 35.0000
      vertex 0.0000 60.0000 35.0000
    endloop
  endfacet
endsolid enclosure
